<svg width="507" height="470" viewBox="0 0 507 470" fill="none" xmlns="http://www.w3.org/2000/svg">
<path d="M490.537 322.789C492.434 317.22 489.41 313.854 484.162 311.641C476.518 308.417 468.741 305.405 461.672 301.216C444.64 291.122 436.972 276.772 440.109 258.744C443.129 241.392 455.133 230.567 473.963 225.907C481.571 224.024 489.435 223.589 497.234 222.822C503.4 222.215 506.853 219.259 506.866 214.446C506.88 209.502 503.027 206.168 496.701 206.017C489.985 205.857 483.26 205.894 476.541 205.975C472.483 206.025 468.51 205.639 464.55 204.896C440.084 200.303 423.925 178.5 428.21 156.431C430.934 142.4 440.61 133.143 452.893 125.407C457.132 122.737 461.583 120.301 465.572 117.36C469.325 114.593 470.581 110.838 468.204 106.716C465.934 102.779 462.006 101.916 457.428 102.478C454.65 102.819 452.441 104.218 450.184 105.501C443.695 109.191 437.213 112.878 430.139 115.64C420.524 119.393 410.539 120.599 400.339 118.403C372.018 112.307 358.469 86.7928 370.297 62.0619C373.178 56.036 376.892 50.3927 380.484 44.6872C383.872 39.3059 382.711 33.9888 378.072 31.3583C373.124 28.5522 367.301 30.1395 363.359 35.4559C359.848 40.1889 356.506 45.0235 352.952 49.7292C340.277 66.5115 320.185 73.4653 299.402 68.3333C278.385 63.1436 264.805 47.6985 263.552 27.4678C263.147 20.9347 263.158 14.3731 262.508 7.86234C262.043 3.19515 258.819 0.376838 253.452 0.0320329C247.972 -0.319995 244.894 2.24685 243.557 6.87388C241.887 12.6559 242.628 18.539 242.589 24.3767C242.448 45.1647 228.957 62.3899 208.213 68.0462C186.669 73.9207 166.117 67.0467 152.704 49.38C148.922 44.3985 145.571 39.148 141.681 34.2394C138.26 29.9236 133.76 28.983 129.102 31.0354C123.668 33.4292 122.275 37.9684 125.571 43.8045C130.166 51.9401 135.268 59.8271 138.044 68.7268C144.953 90.8786 130.58 113.281 105.743 118.518C91.5698 121.506 78.8301 117.639 66.774 111.255C62.3134 108.893 58.0542 106.225 53.6004 103.852C48.4882 101.128 42.5245 101.896 39.5342 105.479C36.2254 109.444 37.0165 113.827 41.8464 117.836C42.9664 118.765 44.2154 119.592 45.4963 120.34C51.7796 124.009 57.7909 127.991 63.3427 132.524C77.1602 143.808 82.5153 157.581 77.9214 173.978C73.1992 190.833 60.538 200.687 42.2167 204.913C32.2338 207.215 21.9545 205.63 11.8157 205.963C4.54984 206.201 0.138789 209.187 0.00289131 214.174C-0.125182 218.873 4.00935 222.119 10.8626 222.837C16.9479 223.475 23.0938 223.891 29.0824 224.983C47.5818 228.355 60.4073 237.639 65.066 254.543C69.6994 271.356 65.1824 285.794 50.397 297.385C42.2888 303.742 32.5306 307.335 22.9165 311.236C16.7122 313.752 14.3594 317.958 16.2456 322.678C18.2257 327.632 23.326 329.67 29.9929 327.863C34.209 326.721 38.2555 325.084 42.4355 323.823C66.4118 316.586 86.5487 322.319 98.297 340.486C107.413 354.584 106.538 369.176 98.0406 383.358C94.3999 389.434 89.5727 394.838 84.4759 400.02C83.0864 401.433 81.7249 402.922 80.6869 404.549C77.8709 408.963 78.7012 413.051 82.8185 416.109C86.8727 419.121 91.6433 419.07 95.8075 415.489C101.345 410.726 106.127 405.295 112.079 400.873C132.44 385.743 156.637 386.786 175.044 403.754C188.542 416.196 190.849 431.102 186.757 447.378C185.661 451.734 184.26 456.063 183.654 460.477C183.002 465.224 185.819 468.501 190.921 469.689C195.885 470.844 199.485 468.682 201.895 464.881C202.737 463.553 203.204 462.022 203.759 460.558C205.921 454.857 207.786 449.053 210.238 443.455C219.311 422.738 241.565 412.588 265.687 417.931C282.692 421.699 293.092 431.776 298.91 446.091C301.206 451.74 302.761 457.631 305.026 463.292C307.079 468.421 312.375 470.953 317.21 469.599C322.626 468.082 325.194 463.672 323.824 458.142C322.409 452.434 320.819 446.759 319.528 441.029C315.479 423.064 325.969 404.186 345.156 394.706C361.29 386.735 381.859 389.663 396.623 402.171C401.508 406.31 406.041 410.782 410.88 414.965C415.6 419.045 420.318 419.259 424.738 415.855C428.97 412.596 429.487 407.975 425.707 403.365C422.524 399.485 418.925 395.881 415.532 392.139C406.53 382.21 401.111 371.259 401.759 358.032C402.659 339.656 419.001 323.204 439.227 321.002C452.124 319.597 463.799 323.244 475.33 327.749C482.527 330.561 485.912 329.496 490.537 322.789Z" fill="white"/>
<path d="M295.827 164.233C295.777 164.2 295.728 164.166 295.678 164.133C295.73 164.167 295.776 164.199 295.827 164.233Z" fill="#202020"/>
<path fill-rule="evenodd" clip-rule="evenodd" d="M389.959 337.473C417.111 302.916 427.072 263.908 424.245 221.536C424.133 220.995 424.018 220.517 423.912 220.079C423.727 219.314 423.571 218.671 423.518 218.021C421.961 198.865 415.886 180.792 406.29 163.776C374.301 107.05 306.169 73.1629 233.302 80.9592C195.39 85.0155 162.435 98.7053 135.261 122.589C94.2943 158.594 77.3684 202.731 82.6078 253.875C86.4297 291.181 100.842 324.709 129.098 352.432C168.165 390.762 217.152 408.471 274.81 402.059C323.683 396.625 361.773 373.346 389.959 337.473ZM199.074 343.435C198.354 343.194 197.635 342.952 196.912 342.718C176.8 336.511 157.071 332.147 136.883 330.025C125.501 328.829 121.099 322.277 117.586 314.118C127.212 309.263 218.681 327.508 231.147 337.135C229.388 338.155 227.669 339.196 225.966 340.228C221.916 342.68 217.951 345.081 213.73 347.038C211.491 348.076 209.153 347.07 206.831 346.072C205.864 345.656 204.9 345.241 203.947 344.976C202.303 344.519 200.688 343.977 199.074 343.435ZM264.588 387.918C279.326 376.036 295.329 366.553 311.99 357.882C337.672 345.275 361.879 336.932 369.315 338.003C362.736 358.861 286.664 395.699 264.588 387.918ZM390.956 310.597C388.468 316.622 384.541 320.68 376.876 320.746C340.752 326.683 309.368 340.255 280.204 358.398C267.413 366.355 255.176 374.932 244.035 384.713C241.288 387.125 238.216 388.617 234.272 388.292C221.819 387.267 209.837 384.692 198.608 380.036C198.332 377.355 200.017 376.143 201.594 375.009C201.769 374.883 201.948 374.755 202.117 374.629C250.294 338.844 305.191 316.091 366.799 306.524C373.374 305.503 380.145 305.314 386.838 305.139C392.402 304.993 392.819 306.086 390.956 310.597ZM218.242 233.334C217.945 233.283 217.649 233.233 217.354 233.177C216.654 233.115 215.989 233.076 215.352 233.04C212.922 232.9 210.908 232.785 208.986 231.44C209.51 230.418 210.063 229.404 210.617 228.389L210.87 227.925L210.995 227.695C212.137 225.595 213.253 223.483 214.086 221.284C215.309 218.054 216.356 214.202 213.17 211.569C209.753 208.744 205.452 210 201.841 211.721C199.282 212.941 196.883 214.431 194.521 215.899C193.497 216.535 192.479 217.167 191.459 217.771C189.513 216.975 189.378 215.592 189.249 214.263C189.194 213.705 189.141 213.156 188.955 212.664C188.717 212.037 188.494 211.405 188.27 210.773C187.507 208.617 186.746 206.466 185.446 204.503C181.703 198.849 177.233 198.751 173.017 204.077C171.048 206.565 170.154 209.414 169.262 212.253C168.709 214.014 168.157 215.772 167.35 217.438C165.508 217.813 164.454 216.903 163.443 216.028C163.085 215.719 162.732 215.414 162.351 215.172L162.152 215.046C159.857 213.587 157.581 212.14 154.924 211.276L154.734 211.215C151.325 210.105 147.66 208.912 144.616 211.467C141.655 213.951 142.533 217.166 143.407 220.364L143.488 220.663C144.014 222.595 145.101 224.281 146.19 225.967C147.204 227.539 148.218 229.111 148.779 230.885C147.25 232.245 145.453 232.262 143.683 232.279C142.578 232.289 141.484 232.3 140.472 232.637C139.495 232.963 138.464 233.162 137.434 233.36L137.244 233.397C136.272 233.585 135.303 233.779 134.382 234.088C126.181 236.837 125.351 241.637 132.256 246.598C134.032 247.874 136.112 248.845 138.155 249.774C139.571 250.418 141.05 250.948 142.468 251.457C143.073 251.674 143.667 251.887 144.24 252.103C144.69 253.639 143.795 254.246 142.924 254.838C142.74 254.962 142.558 255.086 142.389 255.217C141.869 255.623 141.334 256.018 140.8 256.413C139.55 257.336 138.299 258.259 137.229 259.328C133.822 262.73 130.187 266.714 133.123 271.275C135.691 275.266 140.417 274.542 144.783 273.873C145.278 273.797 145.769 273.722 146.251 273.655C147.575 273.47 148.905 273.229 150.176 272.86C154.888 271.495 155.741 273.465 154.755 277.056C153.913 280.122 153.777 283.236 154.578 286.279C156.082 291.995 160.555 293.347 165.656 289.699C166.788 288.89 167.81 287.955 168.831 287.022C169.158 286.723 169.486 286.423 169.816 286.129C170.655 285.381 171.474 284.614 172.277 283.863C172.627 283.536 172.974 283.211 173.318 282.892C173.318 284.497 173.33 286.097 173.341 287.693C173.369 291.391 173.396 295.067 173.275 298.739C173.144 302.73 170.56 304.123 166.298 303.353C148.438 300.124 130.461 297.704 112.216 297.218C108.58 297.121 107.457 294.83 106.477 292.285C101.643 279.719 98.5819 266.87 97.0866 253.59C94.4526 230.197 96.9343 207.378 106.608 185.6C128.79 135.662 169.019 104.676 228.434 95.2408C297.284 84.3073 367.869 117.706 396.521 176.329C408.085 199.991 412.066 224.769 409.136 250.514C408.376 257.192 407.404 263.831 406.374 270.469C405.52 275.974 404.407 276.697 398.448 274.86C386.176 271.078 373.732 270.031 361.089 272.743C346.845 275.798 336.98 284.328 328.466 294.439C328.161 294.8 327.877 295.185 327.589 295.575C326.3 297.323 324.938 299.168 321.374 299.401L318.786 250.561C319.929 251.727 320.964 252.872 321.958 253.972C324.267 256.525 326.358 258.838 329.067 260.612C335.665 264.929 340.673 263.251 342.775 256.265C344.341 251.064 343.738 246.032 342.27 240.982C342.184 240.684 342.087 240.388 341.991 240.092C341.554 238.752 341.117 237.412 341.596 235.884C343.606 235.229 345.272 235.981 346.896 236.714C347.455 236.967 348.009 237.217 348.57 237.407C354.017 239.248 359.527 240.471 365.394 240.24C372.576 239.958 375.261 236.58 373.194 230.316C371.207 224.295 366.993 219.698 361.681 215.809C360.607 215.022 359.513 214.257 358.26 213.381L358.257 213.379L358.254 213.377L358.251 213.375L358.247 213.372L358.245 213.371C357.619 212.933 356.952 212.467 356.23 211.957C358.48 211.062 360.753 210.398 362.976 209.749C366.546 208.707 369.987 207.702 372.998 205.834C373.596 205.463 374.221 205.1 374.85 204.733C378.658 202.515 382.653 200.188 382.124 195.514C381.535 190.309 376.44 188.683 371.755 187.188C371.317 187.048 370.883 186.909 370.456 186.769C366.501 185.469 362.322 185.075 358.012 184.668C356.055 184.483 354.07 184.296 352.067 184.02C352.472 182.11 353.721 180.838 354.928 179.609C355.61 178.915 356.279 178.234 356.774 177.46L356.781 177.448C359.269 173.556 361.718 169.723 362.471 165.157C363.952 156.171 359.203 152.356 349.446 155.014C343.859 156.536 339.036 159.368 334.573 162.705C333.583 163.444 332.585 164.175 331.569 164.919L331.565 164.922L331.534 164.945C331.074 165.281 330.61 165.621 330.142 165.964C328.245 164.45 328.061 162.673 327.879 160.907C327.851 160.643 327.824 160.378 327.791 160.115C327.092 154.562 325.309 149.322 321.644 144.737C316.866 138.761 311.776 138.81 307.058 144.918C303.05 150.107 301.141 156.058 299.659 162.151C299.592 162.424 299.564 162.71 299.534 163.004C299.444 163.911 299.346 164.89 298.103 165.761C297.302 165.226 296.494 164.682 295.678 164.133L294.991 163.67C293.366 162.576 291.716 161.47 290.046 160.389C285.813 157.647 281.317 155.31 276.095 154.541C267.671 153.3 263.577 157.169 265.266 164.629C266.512 170.13 269.166 175.04 272.963 179.49C273.238 179.812 273.562 180.111 273.891 180.414C274.889 181.336 275.933 182.299 275.79 184.087C273.433 184.476 271.033 184.561 268.627 184.647C265.743 184.75 262.851 184.853 260.019 185.48C256.058 186.357 252.247 187.426 248.959 189.605C244.351 192.658 243.964 196.176 247.639 200.193C252.361 205.355 258.958 207.724 265.667 209.911C266.857 210.298 268.07 210.643 269.46 211.038C270.157 211.236 270.895 211.445 271.705 211.681C270.336 212.768 268.927 213.757 267.543 214.728C264.614 216.784 261.798 218.76 259.715 221.424C259.456 221.756 259.169 222.072 258.883 222.387L258.881 222.388L258.881 222.389C258.56 222.742 258.24 223.095 257.957 223.471C254.829 227.627 252.338 232.347 255.276 236.97C258.109 241.428 263.407 240.643 268.016 239.96L268.383 239.906C268.76 239.85 269.131 239.797 269.495 239.747C273.214 239.245 276.839 238.181 280.708 237.044L281.338 236.859C282.893 236.403 284.49 235.94 286.151 235.501C285.902 236.816 285.676 238.091 285.454 239.335C284.966 242.08 284.504 244.68 283.889 247.249C283.001 250.954 283.811 254.501 285.014 257.922C286.853 263.149 290.879 264.366 296.25 261.654C301.255 259.127 304.469 255.059 308.051 250.527C308.307 250.202 308.566 249.875 308.828 249.545C308.69 256.186 308.285 262.713 307.883 269.194C307.295 278.655 306.714 288.017 306.982 297.482C298.809 285.48 287.322 278.014 272.344 275.104C263.741 273.432 255.033 272.239 245.869 275.206C251.529 292.409 261.68 305.571 280.84 310.953C281.073 313.049 280.052 313.507 279.041 313.961L278.953 314C276.747 314.994 274.538 315.982 272.329 316.971C266.466 319.595 260.603 322.219 254.794 324.936C251.993 326.245 249.487 326.4 246.627 325.134C229.325 317.471 211.006 312.384 192.26 308.618C186.214 307.404 183.867 304.571 183.889 299.424C183.905 295.566 183.901 291.706 183.897 288.045V288.043V288.042V288.041V288.04V288.039V288.034C183.896 286.489 183.894 284.98 183.894 283.52C184.661 284.11 185.449 284.731 186.253 285.366L186.259 285.37L186.261 285.372L186.264 285.374L186.27 285.38L186.555 285.604L186.961 285.924C188.619 287.229 190.352 288.578 192.156 289.845C197.175 293.37 201.255 292.167 202.873 286.641C203.86 283.27 203.652 279.778 202.945 276.38C202.133 272.478 203.974 271.729 207.738 272.633C208.188 272.741 208.636 272.853 209.085 272.964L209.087 272.964C211.771 273.63 214.457 274.297 217.312 274.244C224.647 274.109 227.299 270.351 224.319 264.252C223.133 261.824 221.253 259.866 219.093 258.149C217.712 257.051 216.24 256.047 214.759 255.037C214.105 254.59 213.448 254.143 212.798 253.686C213.122 252.333 214.215 252.017 215.304 251.702C215.627 251.609 215.95 251.516 216.252 251.396C216.715 251.212 217.185 251.036 217.657 250.862L217.927 250.762L217.929 250.761C219.508 250.179 221.093 249.594 222.467 248.743C222.717 248.588 222.971 248.434 223.226 248.278L223.355 248.2C226.592 246.234 230.1 244.103 229.582 240.081C229.049 235.941 225.082 234.951 221.333 234.015L221.33 234.014C220.935 233.916 220.542 233.818 220.157 233.717C219.53 233.553 218.886 233.443 218.242 233.334ZM177.229 370.662L177.363 370.719C178.729 371.301 180.183 371.921 181.576 371.013C186.767 367.631 191.659 363.951 196.523 358.874C179.038 352.889 162.289 348.169 142.85 346.126C152.991 357.127 164.585 363.911 177.229 370.662Z" fill="#202020"/>
<path d="M330.462 212.047C323.866 221.187 312.052 223.794 302.843 218.436C294.518 213.593 291.964 202.793 297.342 195.175C302.336 188.101 313.33 185.534 322.262 189.355C331.522 193.317 334.709 201.757 330.462 212.047Z" fill="white"/>
<path d="M167.407 239.05C172.927 234.116 178.871 232.901 185.524 235.985C191.56 238.783 193.54 243.512 192.991 249.354C192.527 254.301 188.698 258.474 182.952 260.179C177.479 261.803 171.479 260.06 167.574 255.711C163.539 251.216 163.37 245.17 167.407 239.05Z" fill="white"/>
</svg>
