<svg width="445" height="461" viewBox="0 0 445 461" fill="none" xmlns="http://www.w3.org/2000/svg">
<path fill-rule="evenodd" clip-rule="evenodd" d="M221.619 0C171.71 35.1441 139.105 93.2077 139.105 158.887C139.105 222.752 169.935 279.415 217.523 314.809C238.172 330.167 261.978 341.52 287.789 347.719C302.387 351.224 317.626 353.081 333.299 353.081C345.47 353.081 357.38 351.961 368.931 349.819C396.515 344.703 422.052 333.756 444.217 318.306C409.62 401.837 327.304 460.6 231.265 460.6C104.019 460.6 0.866211 357.447 0.866211 230.201C0.866211 106.186 98.8467 5.05627 221.619 0Z" fill="#D9D9D9"/>
<path fill-rule="evenodd" clip-rule="evenodd" d="M287.789 231.632V347.719C261.978 341.52 238.172 330.167 217.523 314.809V231.632H287.789ZM230.907 250.035V273.457H245.127V250.035H230.907ZM264.367 250.035V273.457H278.588V250.035H264.367ZM230.907 283.496V306.918H245.127V283.496H230.907Z" fill="url(#paint0_linear_76_304)"/>
<path fill-rule="evenodd" clip-rule="evenodd" d="M368.931 158.887V349.819C357.38 351.961 345.47 353.081 333.299 353.081C317.626 353.081 302.387 351.224 287.789 347.719V231.632V158.887H368.931ZM304.52 202.354V178.932H318.74V202.354H304.52ZM304.52 226.613V250.035H318.74V226.613H304.52ZM304.52 296.88V273.457H318.74V296.88H304.52ZM341.326 226.613V250.035H355.547V226.613H341.326ZM341.326 202.354V178.932H355.547V202.354H341.326Z" fill="url(#paint1_linear_76_304)"/>
<defs>
<linearGradient id="paint0_linear_76_304" x1="292.809" y1="159.692" x2="297.828" y2="394.752" gradientUnits="userSpaceOnUse">
<stop offset="0.418269" stop-color="#D9D9D9"/>
<stop offset="0.822115" stop-color="#878787"/>
</linearGradient>
<linearGradient id="paint1_linear_76_304" x1="292.809" y1="159.692" x2="297.828" y2="394.752" gradientUnits="userSpaceOnUse">
<stop offset="0.418269" stop-color="#D9D9D9"/>
<stop offset="0.822115" stop-color="#878787"/>
</linearGradient>
</defs>
</svg>
