<svg width="225" height="70" viewBox="0 0 225 70" fill="none" xmlns="http://www.w3.org/2000/svg">
<path d="M69.3604 31.7396C67.6324 31.7396 66.0217 31.4623 64.5284 30.9076C63.0564 30.3316 61.7764 29.5209 60.6884 28.4756C59.6004 27.4303 58.747 26.2036 58.1284 24.7956C57.531 23.3876 57.2324 21.8409 57.2324 20.1556C57.2324 18.4703 57.531 16.9236 58.1284 15.5156C58.747 14.1076 59.6004 12.8809 60.6884 11.8356C61.7977 10.7903 63.0884 9.99026 64.5604 9.43559C66.0324 8.85959 67.643 8.57159 69.3924 8.57159C71.3337 8.57159 73.083 8.91292 74.6404 9.59559C76.219 10.2569 77.5417 11.2383 78.6084 12.5396L75.2804 15.6116C74.5124 14.7369 73.659 14.0863 72.7204 13.6596C71.7817 13.2116 70.7577 12.9876 69.6484 12.9876C68.603 12.9876 67.643 13.1583 66.7684 13.4996C65.8937 13.8409 65.1364 14.3316 64.4964 14.9716C63.8564 15.6116 63.355 16.3689 62.9924 17.2436C62.651 18.1183 62.4804 19.0889 62.4804 20.1556C62.4804 21.2223 62.651 22.1929 62.9924 23.0676C63.355 23.9423 63.8564 24.6996 64.4964 25.3396C65.1364 25.9796 65.8937 26.4703 66.7684 26.8116C67.643 27.1529 68.603 27.3236 69.6484 27.3236C70.7577 27.3236 71.7817 27.1103 72.7204 26.6836C73.659 26.2356 74.5124 25.5636 75.2804 24.6676L78.6084 27.7396C77.5417 29.0409 76.219 30.0329 74.6404 30.7156C73.083 31.3983 71.323 31.7396 69.3604 31.7396ZM82.1091 31.3556V8.95559H87.2931V31.3556H82.1091ZM92.6091 31.3556V8.95559H102.305C104.31 8.95559 106.038 9.28626 107.489 9.94759C108.94 10.5876 110.06 11.5156 110.849 12.7316C111.638 13.9476 112.033 15.3983 112.033 17.0836C112.033 18.7476 111.638 20.1876 110.849 21.4036C110.06 22.5983 108.94 23.5156 107.489 24.1556C106.038 24.7956 104.31 25.1156 102.305 25.1156H95.4891L97.7931 22.8436V31.3556H92.6091ZM106.849 31.3556L101.249 23.2276H106.785L112.449 31.3556H106.849ZM97.7931 23.4196L95.4891 20.9876H102.017C103.617 20.9876 104.812 20.6463 105.601 19.9636C106.39 19.2596 106.785 18.2996 106.785 17.0836C106.785 15.8463 106.39 14.8863 105.601 14.2036C104.812 13.5209 103.617 13.1796 102.017 13.1796H95.4891L97.7931 10.7156V23.4196ZM126.86 31.7396C125.132 31.7396 123.522 31.4623 122.028 30.9076C120.556 30.3316 119.276 29.5209 118.188 28.4756C117.1 27.4303 116.247 26.2036 115.628 24.7956C115.031 23.3876 114.732 21.8409 114.732 20.1556C114.732 18.4703 115.031 16.9236 115.628 15.5156C116.247 14.1076 117.1 12.8809 118.188 11.8356C119.298 10.7903 120.588 9.99026 122.06 9.43559C123.532 8.85959 125.143 8.57159 126.892 8.57159C128.834 8.57159 130.583 8.91292 132.14 9.59559C133.719 10.2569 135.042 11.2383 136.108 12.5396L132.78 15.6116C132.012 14.7369 131.159 14.0863 130.22 13.6596C129.282 13.2116 128.258 12.9876 127.148 12.9876C126.103 12.9876 125.143 13.1583 124.268 13.4996C123.394 13.8409 122.636 14.3316 121.996 14.9716C121.356 15.6116 120.855 16.3689 120.492 17.2436C120.151 18.1183 119.98 19.0889 119.98 20.1556C119.98 21.2223 120.151 22.1929 120.492 23.0676C120.855 23.9423 121.356 24.6996 121.996 25.3396C122.636 25.9796 123.394 26.4703 124.268 26.8116C125.143 27.1529 126.103 27.3236 127.148 27.3236C128.258 27.3236 129.282 27.1103 130.22 26.6836C131.159 26.2356 132.012 25.5636 132.78 24.6676L136.108 27.7396C135.042 29.0409 133.719 30.0329 132.14 30.7156C130.583 31.3983 128.823 31.7396 126.86 31.7396ZM149.436 31.7396C146.257 31.7396 143.772 30.8543 141.98 29.0836C140.188 27.3129 139.292 24.7849 139.292 21.4996V8.95559H144.476V21.3076C144.476 23.4409 144.913 24.9769 145.788 25.9156C146.663 26.8543 147.889 27.3236 149.468 27.3236C151.047 27.3236 152.273 26.8543 153.148 25.9156C154.023 24.9769 154.46 23.4409 154.46 21.3076V8.95559H159.58V21.4996C159.58 24.7849 158.684 27.3129 156.892 29.0836C155.1 30.8543 152.615 31.7396 149.436 31.7396ZM164.703 31.3556V8.95559H169.887V31.3556H164.703ZM179.843 31.3556V13.1796H172.675V8.95559H192.195V13.1796H185.027V31.3556H179.843ZM205.552 31.7396C203.781 31.7396 202.138 31.4516 200.624 30.8756C199.13 30.2996 197.829 29.4889 196.72 28.4436C195.632 27.3983 194.778 26.1716 194.16 24.7636C193.562 23.3556 193.264 21.8196 193.264 20.1556C193.264 18.4916 193.562 16.9556 194.16 15.5476C194.778 14.1396 195.642 12.9129 196.752 11.8676C197.861 10.8223 199.162 10.0116 200.656 9.43559C202.149 8.85959 203.77 8.57159 205.52 8.57159C207.29 8.57159 208.912 8.85959 210.384 9.43559C211.877 10.0116 213.168 10.8223 214.256 11.8676C215.365 12.9129 216.229 14.1396 216.848 15.5476C217.466 16.9343 217.776 18.4703 217.776 20.1556C217.776 21.8196 217.466 23.3663 216.848 24.7956C216.229 26.2036 215.365 27.4303 214.256 28.4756C213.168 29.4996 211.877 30.2996 210.384 30.8756C208.912 31.4516 207.301 31.7396 205.552 31.7396ZM205.52 27.3236C206.522 27.3236 207.44 27.1529 208.272 26.8116C209.125 26.4703 209.872 25.9796 210.512 25.3396C211.152 24.6996 211.642 23.9423 211.984 23.0676C212.346 22.1929 212.528 21.2223 212.528 20.1556C212.528 19.0889 212.346 18.1183 211.984 17.2436C211.642 16.3689 211.152 15.6116 210.512 14.9716C209.893 14.3316 209.157 13.8409 208.304 13.4996C207.45 13.1583 206.522 12.9876 205.52 12.9876C204.517 12.9876 203.589 13.1583 202.736 13.4996C201.904 13.8409 201.168 14.3316 200.528 14.9716C199.888 15.6116 199.386 16.3689 199.024 17.2436C198.682 18.1183 198.512 19.0889 198.512 20.1556C198.512 21.2009 198.682 22.1716 199.024 23.0676C199.386 23.9423 199.877 24.6996 200.496 25.3396C201.136 25.9796 201.882 26.4703 202.736 26.8116C203.589 27.1529 204.517 27.3236 205.52 27.3236Z" fill="white"/>
<path d="M74.712 58.2196C74.9893 58.2196 75.2027 58.3476 75.352 58.6036C75.5227 58.8596 75.608 59.2116 75.608 59.6596C75.608 60.5129 75.4053 61.1743 75 61.6436C74.1253 62.7103 73.1653 63.6276 72.12 64.3956C71.0747 65.1423 70.04 65.5156 69.016 65.5156C67.3947 65.5156 66.1573 64.5663 65.304 62.6676C64.408 63.7983 63.6187 64.5556 62.936 64.9396C62.2747 65.3236 61.496 65.5156 60.6 65.5156C59.2987 65.5156 58.2213 65.0356 57.368 64.0756C56.536 63.0943 56.12 61.8249 56.12 60.2676C56.12 58.5609 56.4827 56.9823 57.208 55.5316C57.9333 54.0596 58.9253 52.8649 60.184 51.9476C61.464 51.0089 62.8933 50.4543 64.472 50.2836C64.8773 46.1449 65.6453 42.6143 66.776 39.6916C67.928 36.7476 69.432 35.2756 71.288 35.2756C72.2053 35.2756 72.9627 35.6916 73.56 36.5236C74.1787 37.3556 74.488 38.6143 74.488 40.2996C74.488 42.6889 73.9013 45.4836 72.728 48.6836C71.5547 51.8836 69.9867 55.1689 68.024 58.5396C68.1093 59.7769 68.2907 60.6623 68.568 61.1956C68.8667 61.7289 69.24 61.9956 69.688 61.9956C70.264 61.9956 70.8507 61.7396 71.448 61.2276C72.0453 60.7156 72.8453 59.8623 73.848 58.6676C74.104 58.3689 74.392 58.2196 74.712 58.2196ZM70.936 38.4116C70.5307 38.4116 70.1253 39.1369 69.72 40.5876C69.3147 42.0169 68.9627 43.8943 68.664 46.2196C68.3867 48.5449 68.184 50.9769 68.056 53.5156C70.4453 48.3103 71.64 44.1289 71.64 40.9716C71.64 40.1609 71.5653 39.5316 71.416 39.0836C71.288 38.6356 71.128 38.4116 70.936 38.4116ZM61.72 62.2836C62.1253 62.2836 62.5307 62.1236 62.936 61.8036C63.3413 61.4623 63.8533 60.8436 64.472 59.9476C64.2587 58.7956 64.152 57.5049 64.152 56.0756C64.152 55.5636 64.1733 54.7316 64.216 53.5796C63.0427 53.9423 62.0613 54.7316 61.272 55.9476C60.504 57.1423 60.12 58.4756 60.12 59.9476C60.12 61.5049 60.6533 62.2836 61.72 62.2836ZM76.3723 65.5156C75.1563 65.5156 74.1643 65.0356 73.3963 64.0756C72.6496 63.1156 72.2763 61.8569 72.2763 60.2996C72.2763 58.5929 72.6709 56.9823 73.4603 55.4676C74.2496 53.9316 75.2949 52.7049 76.5963 51.7876C77.9189 50.8489 79.3163 50.3796 80.7883 50.3796C81.2576 50.3796 81.5669 50.4756 81.7163 50.6676C81.8869 50.8383 82.0256 51.1583 82.1323 51.6276C82.5376 51.5423 82.9856 51.4996 83.4763 51.4996C83.9883 51.4996 84.3829 51.6276 84.6603 51.8836C84.9376 52.1396 85.0763 52.5023 85.0763 52.9716C85.0763 53.4623 84.9696 54.3156 84.7563 55.5316C84.5216 56.8329 84.3403 58.0809 84.2123 59.2756C84.0843 60.4489 84.0203 61.7716 84.0203 63.2436C84.0203 64.0543 83.8496 64.6409 83.5083 65.0036C83.1883 65.3449 82.6549 65.5156 81.9083 65.5156C81.1829 65.5156 80.6389 65.3449 80.2763 65.0036C79.9349 64.6409 79.7643 64.0649 79.7643 63.2756L79.7963 62.7636C79.1349 64.5983 77.9936 65.5156 76.3723 65.5156ZM77.6203 62.2836C78.2176 62.2836 78.7616 61.8676 79.2523 61.0356C79.7429 60.2036 80.1803 58.7209 80.5642 56.5876L81.1723 53.3556C80.2976 53.3769 79.4869 53.7183 78.7403 54.3796C77.9936 55.0196 77.3963 55.8729 76.9483 56.9396C76.5003 58.0063 76.2763 59.1369 76.2763 60.3316C76.2763 60.9716 76.3936 61.4623 76.6283 61.8036C76.8843 62.1236 77.2149 62.2836 77.6203 62.2836ZM121.193 38.7956C121.855 38.9236 122.345 39.1476 122.665 39.4676C123.007 39.7876 123.177 40.1609 123.177 40.5876C123.177 41.2916 122.975 41.8036 122.569 42.1236C122.185 42.4436 121.567 42.5716 120.713 42.5076C118.793 42.3583 117.289 42.2623 116.201 42.2196C115.135 42.1556 113.727 42.1129 111.977 42.0916C111.188 46.0169 110.463 49.9636 109.801 53.9316C109.567 55.3823 109.321 57.0676 109.065 58.9876C108.809 60.8863 108.639 62.4223 108.553 63.5956C108.511 64.2143 108.255 64.6943 107.785 65.0356C107.316 65.3556 106.751 65.5156 106.089 65.5156C105.385 65.5156 104.841 65.3449 104.457 65.0036C104.073 64.6623 103.881 64.2143 103.881 63.6596C103.881 63.1476 103.956 62.3049 104.105 61.1316C104.276 59.9369 104.468 58.6889 104.681 57.3876C104.916 56.0863 105.097 54.9556 105.225 53.9956C105.46 52.3743 105.727 50.7636 106.025 49.1636C106.324 47.5636 106.623 46.0489 106.921 44.6196C106.985 44.2996 107.06 43.9369 107.145 43.5316C107.231 43.1049 107.327 42.6356 107.433 42.1236C105.343 42.1876 103.7 42.3583 102.505 42.6356C101.311 42.9129 100.457 43.3076 99.9453 43.8196C99.4546 44.3103 99.2093 44.9503 99.2093 45.7396C99.2093 46.4649 99.4226 47.1583 99.8493 47.8196C99.9346 47.9689 99.9773 48.1289 99.9773 48.2996C99.9773 48.7049 99.7319 49.0889 99.2413 49.4516C98.7719 49.7929 98.2813 49.9636 97.7693 49.9636C97.4066 49.9636 97.1079 49.8569 96.8733 49.6436C96.4466 49.2809 96.0946 48.7689 95.8173 48.1076C95.5399 47.4249 95.4013 46.6569 95.4013 45.8036C95.4013 43.9903 95.9879 42.5396 97.1613 41.4516C98.3559 40.3423 100.159 39.5316 102.569 39.0196C105.001 38.5076 108.116 38.2516 111.913 38.2516C114.26 38.2516 116.127 38.2943 117.513 38.3796C118.921 38.4649 120.148 38.6036 121.193 38.7956ZM140.754 59.5316C141.074 59.4036 141.34 59.3396 141.554 59.3396C141.895 59.3396 142.151 59.4676 142.322 59.7236C142.492 59.9796 142.578 60.3103 142.578 60.7156C142.578 61.3556 142.418 61.8996 142.098 62.3476C141.799 62.7956 141.276 63.2009 140.53 63.5636C139.271 64.1609 137.639 64.6409 135.634 65.0036C133.628 65.3449 131.655 65.5156 129.714 65.5156C127.026 65.5156 124.775 65.2169 122.962 64.6196C121.148 64.0009 119.794 63.1583 118.898 62.0916C118.023 61.0249 117.586 59.8196 117.586 58.4756C117.586 56.6409 118.172 55.0836 119.346 53.8036C120.54 52.5023 122.29 51.5636 124.594 50.9876C123.335 50.6249 122.364 49.9849 121.682 49.0676C121.02 48.1503 120.69 47.1263 120.69 45.9956C120.69 44.4596 121.17 43.1049 122.13 41.9316C123.111 40.7369 124.423 39.8196 126.066 39.1796C127.708 38.5396 129.511 38.2196 131.474 38.2196C134.119 38.2196 136.103 38.7956 137.426 39.9476C138.748 41.0783 139.41 42.5503 139.41 44.3636C139.41 45.6223 139.175 46.6463 138.706 47.4356C138.258 48.2036 137.607 48.5876 136.754 48.5876C136.156 48.5876 135.687 48.4596 135.346 48.2036C135.004 47.9263 134.834 47.5209 134.834 46.9876C134.834 46.6249 134.887 46.2303 134.994 45.8036C135.1 45.0996 135.154 44.6196 135.154 44.3636C135.154 43.5956 134.866 42.9769 134.29 42.5076C133.714 42.0169 132.754 41.7716 131.41 41.7716C129.596 41.7716 128.146 42.1556 127.058 42.9236C125.97 43.6916 125.426 44.7263 125.426 46.0276C125.426 47.0303 125.831 47.8623 126.642 48.5236C127.474 49.1636 128.818 49.5156 130.674 49.5796C131.143 49.6009 131.474 49.7076 131.666 49.8996C131.858 50.0916 131.954 50.4116 131.954 50.8596C131.954 52.2676 131.314 52.9823 130.034 53.0036C128.263 53.0463 126.791 53.2916 125.618 53.7396C124.466 54.1876 123.623 54.7636 123.09 55.4676C122.578 56.1503 122.322 56.8863 122.322 57.6756C122.322 58.9983 122.94 60.0009 124.178 60.6836C125.415 61.3449 127.378 61.6756 130.066 61.6756C131.836 61.6756 133.703 61.4729 135.666 61.0676C137.65 60.6409 139.346 60.1289 140.754 59.5316ZM169.923 58.2196C170.201 58.2196 170.414 58.3476 170.563 58.6036C170.734 58.8596 170.819 59.2116 170.819 59.6596C170.819 60.4916 170.617 61.1529 170.211 61.6436C169.187 62.8809 168.153 63.8409 167.107 64.5236C166.062 65.1849 164.825 65.5156 163.395 65.5156C162.009 65.5156 160.825 65.1423 159.843 64.3956C158.883 63.6489 157.966 62.3689 157.091 60.5556C156.387 59.1049 155.833 58.0383 155.427 57.3556C155.022 56.6516 154.617 56.1503 154.211 55.8516C153.827 55.5529 153.347 55.3716 152.771 55.3076C152.686 55.7556 152.441 57.1636 152.035 59.5316C151.865 60.5983 151.758 61.2489 151.715 61.4836C151.502 62.7849 151.075 63.7876 150.435 64.4916C149.795 65.1743 148.825 65.5156 147.523 65.5156C146.094 65.5156 144.825 65.0996 143.715 64.2676C142.627 63.4143 141.785 62.2409 141.187 60.7476C140.59 59.2329 140.291 57.5156 140.291 55.5956C140.291 52.0116 140.91 48.9183 142.147 46.3156C143.406 43.7129 145.155 41.7289 147.395 40.3636C149.657 38.9769 152.259 38.2836 155.203 38.2836C157.251 38.2836 158.969 38.5929 160.355 39.2116C161.742 39.8303 162.766 40.6836 163.427 41.7716C164.11 42.8596 164.451 44.0863 164.451 45.4516C164.451 46.6463 164.163 47.8196 163.587 48.9716C163.033 50.1023 162.19 51.1049 161.059 51.9796C159.929 52.8543 158.553 53.5049 156.931 53.9316C157.955 54.2089 158.745 54.6569 159.299 55.2756C159.854 55.8943 160.409 56.8009 160.963 57.9956C161.561 59.2756 162.147 60.2143 162.723 60.8116C163.321 61.4089 164.003 61.7076 164.771 61.7076C165.454 61.7076 166.105 61.4836 166.723 61.0356C167.342 60.5663 168.121 59.7769 169.059 58.6676C169.315 58.3689 169.603 58.2196 169.923 58.2196ZM148.355 55.2756C147.63 55.2756 147.129 55.1049 146.851 54.7636C146.595 54.4223 146.467 54.0383 146.467 53.6116C146.467 53.0996 146.627 52.6943 146.947 52.3956C147.289 52.0969 147.673 51.9476 148.099 51.9476H148.899C149.241 49.8569 149.561 48.0543 149.859 46.5396C150.137 45.1529 151.033 44.4596 152.547 44.4596C153.763 44.4596 154.371 45.0036 154.371 46.0916C154.371 46.3263 154.361 46.5076 154.339 46.6356L153.379 51.9476C154.531 51.8836 155.577 51.6063 156.515 51.1156C157.475 50.6249 158.233 49.9423 158.787 49.0676C159.363 48.1929 159.651 47.2009 159.651 46.0916C159.651 44.7476 159.193 43.6916 158.275 42.9236C157.358 42.1556 156.014 41.7716 154.243 41.7716C152.153 41.7716 150.318 42.2943 148.739 43.3396C147.182 44.3636 145.966 45.8996 145.091 47.9476C144.217 49.9743 143.779 52.4489 143.779 55.3716C143.779 56.7369 143.918 57.9103 144.195 58.8916C144.473 59.8729 144.814 60.6089 145.219 61.0996C145.625 61.5903 146.009 61.8356 146.371 61.8356C146.649 61.8356 146.873 61.6969 147.043 61.4196C147.235 61.1423 147.385 60.6943 147.491 60.0756L148.355 55.2756ZM198.08 58.2196C198.357 58.2196 198.57 58.3476 198.72 58.6036C198.89 58.8596 198.976 59.2116 198.976 59.6596C198.976 60.4916 198.773 61.1529 198.368 61.6436C197.344 62.8809 196.309 63.8409 195.264 64.5236C194.218 65.1849 192.981 65.5156 191.552 65.5156C190.165 65.5156 188.981 65.1423 188 64.3956C187.04 63.6489 186.122 62.3689 185.248 60.5556C184.544 59.1049 183.989 58.0383 183.583 57.3556C183.178 56.6516 182.773 56.1503 182.368 55.8516C181.984 55.5529 181.504 55.3716 180.928 55.3076C180.842 55.7556 180.597 57.1636 180.192 59.5316C180.021 60.5983 179.914 61.2489 179.872 61.4836C179.658 62.7849 179.232 63.7876 178.592 64.4916C177.952 65.1743 176.981 65.5156 175.68 65.5156C174.25 65.5156 172.981 65.0996 171.872 64.2676C170.784 63.4143 169.941 62.2409 169.344 60.7476C168.746 59.2329 168.448 57.5156 168.448 55.5956C168.448 52.0116 169.066 48.9183 170.304 46.3156C171.562 43.7129 173.312 41.7289 175.552 40.3636C177.813 38.9769 180.416 38.2836 183.36 38.2836C185.408 38.2836 187.125 38.5929 188.512 39.2116C189.898 39.8303 190.922 40.6836 191.584 41.7716C192.266 42.8596 192.608 44.0863 192.608 45.4516C192.608 46.6463 192.32 47.8196 191.744 48.9716C191.189 50.1023 190.346 51.1049 189.216 51.9796C188.085 52.8543 186.709 53.5049 185.088 53.9316C186.112 54.2089 186.901 54.6569 187.456 55.2756C188.01 55.8943 188.565 56.8009 189.12 57.9956C189.717 59.2756 190.304 60.2143 190.88 60.8116C191.477 61.4089 192.16 61.7076 192.928 61.7076C193.61 61.7076 194.261 61.4836 194.88 61.0356C195.498 60.5663 196.277 59.7769 197.216 58.6676C197.472 58.3689 197.76 58.2196 198.08 58.2196ZM176.512 55.2756C175.786 55.2756 175.285 55.1049 175.008 54.7636C174.752 54.4223 174.624 54.0383 174.624 53.6116C174.624 53.0996 174.784 52.6943 175.104 52.3956C175.445 52.0969 175.829 51.9476 176.256 51.9476H177.056C177.397 49.8569 177.717 48.0543 178.016 46.5396C178.293 45.1529 179.189 44.4596 180.704 44.4596C181.92 44.4596 182.528 45.0036 182.528 46.0916C182.528 46.3263 182.517 46.5076 182.496 46.6356L181.536 51.9476C182.688 51.8836 183.733 51.6063 184.672 51.1156C185.632 50.6249 186.389 49.9423 186.944 49.0676C187.52 48.1929 187.808 47.2009 187.808 46.0916C187.808 44.7476 187.349 43.6916 186.432 42.9236C185.514 42.1556 184.17 41.7716 182.4 41.7716C180.309 41.7716 178.474 42.2943 176.896 43.3396C175.338 44.3636 174.122 45.8996 173.248 47.9476C172.373 49.9743 171.936 52.4489 171.936 55.3716C171.936 56.7369 172.074 57.9103 172.352 58.8916C172.629 59.8729 172.97 60.6089 173.376 61.0996C173.781 61.5903 174.165 61.8356 174.528 61.8356C174.805 61.8356 175.029 61.6969 175.2 61.4196C175.392 61.1423 175.541 60.6943 175.648 60.0756L176.512 55.2756ZM204.444 65.5156C202.972 65.5156 201.638 65.1529 200.444 64.4276C199.27 63.7023 198.342 62.6569 197.66 61.2916C196.977 59.9049 196.636 58.2729 196.636 56.3956C196.636 53.1529 197.329 50.1556 198.716 47.4036C200.102 44.6303 202.15 42.4116 204.86 40.7476C207.569 39.0623 210.822 38.2196 214.62 38.2196C215.601 38.2196 216.646 38.2943 217.756 38.4436C218.886 38.5929 219.91 38.8169 220.828 39.1156C221.425 39.2863 221.724 39.7129 221.724 40.3956C221.724 40.9503 221.51 41.4729 221.084 41.9636C220.678 42.4543 220.198 42.6996 219.644 42.6996C219.473 42.6996 219.345 42.6889 219.26 42.6676C218.15 42.4116 217.201 42.2303 216.412 42.1236C215.622 41.9956 214.79 41.9316 213.916 41.9316C211.206 41.9316 208.902 42.5929 207.004 43.9156C205.105 45.2169 203.686 46.9449 202.748 49.0996C201.809 51.2543 201.34 53.5796 201.34 56.0756C201.34 57.8889 201.692 59.2969 202.396 60.2996C203.121 61.2809 204.06 61.7716 205.212 61.7716C206.513 61.7716 207.654 61.2383 208.636 60.1716C209.617 59.1049 210.513 57.3769 211.324 54.9876C212.134 52.5983 212.934 49.3556 213.724 45.2596C213.852 44.6623 214.108 44.2569 214.492 44.0436C214.876 43.8303 215.388 43.7236 216.028 43.7236C217.542 43.7236 218.3 44.2143 218.3 45.1956C218.3 45.3663 218.268 45.5796 218.204 45.8356C217.649 47.9049 217.137 50.1983 216.668 52.7156C216.22 55.2116 215.996 57.1103 215.996 58.4116C215.996 59.5636 216.166 60.4063 216.508 60.9396C216.849 61.4516 217.372 61.7076 218.076 61.7076C218.758 61.7076 219.409 61.4836 220.028 61.0356C220.646 60.5663 221.425 59.7769 222.364 58.6676C222.62 58.3689 222.908 58.2196 223.228 58.2196C223.505 58.2196 223.718 58.3476 223.868 58.6036C224.038 58.8596 224.124 59.2116 224.124 59.6596C224.124 60.4916 223.921 61.1529 223.516 61.6436C222.47 62.9023 221.446 63.8623 220.444 64.5236C219.441 65.1849 218.214 65.5156 216.764 65.5156C215.27 65.5156 214.065 65.0889 213.148 64.2356C212.23 63.3609 211.654 62.1343 211.42 60.5556C209.841 63.8623 207.516 65.5156 204.444 65.5156Z" fill="#B8E986"/>
<path fill-rule="evenodd" clip-rule="evenodd" d="M50.5062 27.9172C50.1507 31.109 47.7481 32.5333 40.405 34.5672L40.4571 12.5227H50.5062V27.9172ZM46.497 24.3042H43.9977V27.8125H46.497V24.3042ZM43.9977 17.2877H46.497V20.5865H43.9977V17.2877Z" fill="#E15D1C"/>
<path d="M27.3145 52.1614C26.7052 58.3208 24.3276 60.564 18.9141 62.3556H43.3941C39.9571 61.2157 38.3392 60.2037 36.2819 56.8704C35.263 54.1905 35.079 52.7794 35.2512 50.1949C35.8209 46.5606 36.6712 44.9667 38.9618 42.7951C40.825 41.651 41.9295 41.2542 44.5279 41.3462C45.3903 41.4256 45.7428 41.5926 46.177 42.0706C47.0749 43.5976 47.7142 44.2707 48.96 45.3307C51.9631 46.6263 53.6678 46.7136 56.7421 45.8482C55.9887 44.5315 55.5843 43.7829 54.526 42.6399C53.199 41.1586 52.3571 40.6115 50.6607 40.2078C49.2091 39.9249 48.131 40.0159 46.177 40.2078C44.6228 39.944 43.6947 39.9326 42.0025 40.0007C43.4145 39.3167 44.1602 39.0185 45.4556 38.5518C48.7046 37.5825 50.4709 37.2489 53.5984 36.7407C56.2582 37.6267 57.6345 37.6475 59.9374 37.0512C62.142 35.8909 63.1449 35.1067 64.2665 33.3254C62.237 32.1767 60.9438 31.997 57.9274 32.3939C56.0244 33.0755 55.0579 33.6884 53.5984 35.1882C51.8999 35.8144 50.7131 36.178 48.187 36.2232C49.6293 35.2534 50.3929 34.6601 51.6914 33.5323C52.8102 32.3066 53.4689 31.514 54.7322 29.8065C57.2045 28.5074 58.2818 27.5409 59.4736 25.2527C60.369 22.5708 60.5416 21.0837 59.9889 18.4739C57.9226 19.0908 56.7691 19.7693 54.7322 22.4584C53.6187 24.4267 53.3376 25.8675 53.4953 29.0821C52.2194 31.1503 51.318 32.2028 48.96 33.9463C46.0075 35.3385 44.1846 35.9973 40.7657 37.0512C38.2965 38.0134 36.856 39.1451 34.2204 41.8637C32.6623 44.1856 31.9686 45.6016 30.9736 48.2804C30.4917 46.5082 30.1396 45.5757 29.2729 44.0888C28.074 42.0415 27.3244 41.0003 25.6653 39.5867C24.4605 38.3194 23.6524 37.7212 22.1094 36.7407C20.1943 35.7507 19.4121 34.9697 18.141 33.4806C17.3747 31.9925 17.2128 31.1535 17.2649 29.6513C19.2592 27.9061 19.8672 26.7577 20.4086 24.5283C20.6485 22.6651 20.538 21.6846 19.9963 20.0263C17.6838 21.2718 16.6896 22.2687 15.7188 24.8388C15.3979 26.1876 15.508 27.186 16.0279 29.2373C16.0551 29.5741 16.1937 30.1197 16.0795 31.3072C15.3035 30.227 15.1049 29.8742 14.4818 28.7198C13.6456 26.9685 13.4069 25.8881 13.2965 23.8039C13.344 22.1558 13.3781 21.2347 13.7604 19.7158C15.2601 18.3411 16.0159 17.5323 16.8011 15.6796C17.5031 13.4138 17.8694 11.8811 17.0587 8.79712C14.8099 9.75582 13.8105 10.7313 12.4719 13.5579C11.8381 16.1982 11.9905 17.4 12.6266 19.3535C12.2534 20.7744 12.3623 21.4133 12.0597 22.5618C11.6665 21.7186 11.2543 21.2953 10.6681 20.4402C10.4867 18.2586 9.83942 17.1977 8.29743 15.4208C6.81803 14.1399 5.79564 13.6965 3.65912 13.3508C3.85347 15.3526 4.20616 16.3675 5.10215 18.0599C6.59336 20.1747 7.60504 20.9235 9.74046 21.4234C10.6371 22.5907 11.0122 23.3154 11.5443 24.6835C12.1797 27.6611 12.7763 29.2605 14.1211 32.0316C12.5592 31.0592 11.7059 30.4716 10.3074 29.1856C9.72425 27.9354 9.57051 27.3132 8.86434 26.4947C7.58391 24.7202 6.67962 24.0339 4.74139 23.3381C3.3032 22.847 2.61685 22.5548 0 22.6137C0.202826 23.3443 0.345029 23.7914 0.669979 24.6835C1.30717 26.1338 1.83764 27.0542 3.9168 28.7716C5.49244 30.0071 6.63053 30.2357 8.86434 30.2723L10.9258 31.5659C13.5924 33.1329 14.9318 34.1374 17.2133 36.0162C15.8761 36.0278 15.1085 35.974 13.6573 35.6022C12.5241 35.0635 11.8834 34.7627 10.6166 34.2568C8.85553 33.611 7.79419 33.6269 5.82367 34.0498C3.71123 34.5252 2.58161 35.2989 0.669979 37.6721C1.52021 38.2723 2.04947 38.5461 3.09221 38.914C3.08891 38.9876 6.25854 39.7757 8.19436 39.2763C10.1302 38.7768 12.7632 36.8793 12.7811 36.7407C12.8262 36.5939 16.5415 37.2097 18.5533 38.4483C20.7036 39.5957 21.7248 40.5017 23.3977 42.3293C21.7637 41.5125 20.8011 41.154 18.9141 40.8805C17.0066 40.62 15.8786 40.7327 13.6573 41.8637C11.5104 43.2162 10.8525 44.4814 9.94661 46.9866C12.5339 47.4675 13.9843 47.4192 16.2342 46.4691C17.2682 46.0067 17.7887 45.5964 18.6563 44.7098C19.4986 43.3945 19.9471 43.0729 20.7178 43.0021C21.4416 43.0406 21.8195 43.1192 22.4185 43.4161C25.8408 45.8077 26.8996 47.702 27.3145 52.1614Z" fill="#497620"/>
<path fill-rule="evenodd" clip-rule="evenodd" d="M31.4375 41.7601C29.184 37.418 27.4553 35.4816 23.3978 33.0666L23.4493 5.27823L30.8706 0L37.9826 5.27823V35.4469C35.0327 37.2455 33.5217 38.496 31.4375 41.7601ZM34.5813 24.6318H31.9529V28.3576H34.5813V24.6318ZM26.9023 21.3199H29.6853V17.5941H26.9023V21.3199ZM34.6843 9.31453H31.8498V13.0403H34.6843V9.31453Z" fill="#ED991A"/>
</svg>
