<svg width="65" height="63" viewBox="0 0 65 63" fill="none" xmlns="http://www.w3.org/2000/svg">
<path fill-rule="evenodd" clip-rule="evenodd" d="M50.5062 27.9172C50.1507 31.109 47.7481 32.5333 40.405 34.5672L40.4571 12.5227H50.5062V27.9172ZM46.497 24.3042H43.9977V27.8125H46.497V24.3042ZM43.9977 17.2877H46.497V20.5865H43.9977V17.2877Z" fill="#E15D1C"/>
<path d="M27.3145 52.1614C26.7052 58.3208 24.3276 60.564 18.9141 62.3556H43.3941C39.9571 61.2157 38.3392 60.2037 36.2819 56.8704C35.263 54.1905 35.079 52.7794 35.2512 50.1949C35.8209 46.5606 36.6712 44.9667 38.9618 42.7951C40.825 41.651 41.9295 41.2542 44.5279 41.3462C45.3903 41.4256 45.7428 41.5926 46.177 42.0706C47.0749 43.5976 47.7142 44.2707 48.96 45.3307C51.9631 46.6263 53.6678 46.7136 56.7421 45.8482C55.9887 44.5315 55.5843 43.7829 54.526 42.6399C53.199 41.1586 52.3571 40.6115 50.6607 40.2078C49.2091 39.9249 48.131 40.0159 46.177 40.2078C44.6228 39.944 43.6947 39.9326 42.0025 40.0007C43.4145 39.3167 44.1602 39.0185 45.4556 38.5518C48.7046 37.5825 50.4709 37.2489 53.5984 36.7407C56.2582 37.6267 57.6345 37.6475 59.9374 37.0512C62.142 35.8909 63.1449 35.1067 64.2665 33.3254C62.237 32.1767 60.9438 31.997 57.9274 32.3939C56.0244 33.0755 55.0579 33.6884 53.5984 35.1882C51.8999 35.8144 50.7131 36.178 48.187 36.2232C49.6293 35.2534 50.3929 34.6601 51.6914 33.5323C52.8102 32.3066 53.4689 31.514 54.7322 29.8065C57.2045 28.5074 58.2818 27.5409 59.4736 25.2527C60.369 22.5708 60.5416 21.0837 59.9889 18.4739C57.9226 19.0908 56.7691 19.7693 54.7322 22.4584C53.6187 24.4267 53.3376 25.8675 53.4953 29.0821C52.2194 31.1503 51.318 32.2028 48.96 33.9463C46.0075 35.3385 44.1846 35.9973 40.7657 37.0512C38.2965 38.0134 36.856 39.1451 34.2204 41.8637C32.6623 44.1856 31.9686 45.6016 30.9736 48.2804C30.4917 46.5082 30.1396 45.5757 29.2729 44.0888C28.074 42.0415 27.3244 41.0003 25.6653 39.5867C24.4605 38.3194 23.6524 37.7212 22.1094 36.7407C20.1943 35.7507 19.4121 34.9697 18.141 33.4806C17.3747 31.9925 17.2128 31.1535 17.2649 29.6513C19.2592 27.9061 19.8672 26.7577 20.4086 24.5283C20.6485 22.6651 20.538 21.6846 19.9963 20.0263C17.6838 21.2718 16.6896 22.2687 15.7188 24.8388C15.3979 26.1876 15.508 27.186 16.0279 29.2373C16.0551 29.5741 16.1937 30.1197 16.0795 31.3072C15.3035 30.227 15.1049 29.8742 14.4818 28.7198C13.6456 26.9685 13.4069 25.8881 13.2965 23.8039C13.344 22.1558 13.3781 21.2347 13.7604 19.7158C15.2601 18.3411 16.0159 17.5323 16.8011 15.6796C17.5031 13.4138 17.8694 11.8811 17.0587 8.79712C14.8099 9.75582 13.8105 10.7313 12.4719 13.5579C11.8381 16.1982 11.9905 17.4 12.6266 19.3535C12.2534 20.7744 12.3623 21.4133 12.0597 22.5618C11.6665 21.7186 11.2543 21.2953 10.6681 20.4402C10.4867 18.2586 9.83942 17.1977 8.29743 15.4208C6.81803 14.1399 5.79564 13.6965 3.65912 13.3508C3.85347 15.3526 4.20616 16.3675 5.10215 18.0599C6.59336 20.1747 7.60504 20.9235 9.74046 21.4234C10.6371 22.5907 11.0122 23.3154 11.5443 24.6835C12.1797 27.6611 12.7763 29.2605 14.1211 32.0316C12.5592 31.0592 11.7059 30.4716 10.3074 29.1856C9.72425 27.9354 9.57051 27.3132 8.86434 26.4947C7.58391 24.7202 6.67962 24.0339 4.74139 23.3381C3.3032 22.847 2.61685 22.5548 0 22.6137C0.202826 23.3443 0.345029 23.7914 0.669979 24.6835C1.30717 26.1338 1.83764 27.0542 3.9168 28.7716C5.49244 30.0071 6.63053 30.2357 8.86434 30.2723L10.9258 31.5659C13.5924 33.1329 14.9318 34.1374 17.2133 36.0162C15.8761 36.0278 15.1085 35.974 13.6573 35.6022C12.5241 35.0635 11.8834 34.7627 10.6166 34.2568C8.85553 33.611 7.79419 33.6269 5.82367 34.0498C3.71123 34.5252 2.58161 35.2989 0.669979 37.6721C1.52021 38.2723 2.04947 38.5461 3.09221 38.914C3.08891 38.9876 6.25854 39.7757 8.19436 39.2763C10.1302 38.7768 12.7632 36.8793 12.7811 36.7407C12.8262 36.5939 16.5415 37.2097 18.5533 38.4483C20.7036 39.5957 21.7248 40.5017 23.3977 42.3293C21.7637 41.5125 20.8011 41.154 18.9141 40.8805C17.0066 40.62 15.8786 40.7327 13.6573 41.8637C11.5104 43.2162 10.8525 44.4814 9.94661 46.9866C12.5339 47.4675 13.9843 47.4192 16.2342 46.4691C17.2682 46.0067 17.7887 45.5964 18.6563 44.7098C19.4986 43.3945 19.9471 43.0729 20.7178 43.0021C21.4416 43.0406 21.8195 43.1192 22.4185 43.4161C25.8408 45.8077 26.8996 47.702 27.3145 52.1614Z" fill="#497620"/>
<path fill-rule="evenodd" clip-rule="evenodd" d="M31.4375 41.7601C29.184 37.418 27.4553 35.4816 23.3978 33.0666L23.4493 5.27823L30.8706 0L37.9826 5.27823V35.4469C35.0327 37.2455 33.5217 38.496 31.4375 41.7601ZM34.5813 24.6318H31.9529V28.3576H34.5813V24.6318ZM26.9023 21.3199H29.6853V17.5941H26.9023V21.3199ZM34.6843 9.31453H31.8498V13.0403H34.6843V9.31453Z" fill="#ED991A"/>
</svg>
